<?xml version="1.0" encoding="utf-8"?>
<!-- Generator: Adobe Illustrator 23.0.1, SVG Export Plug-In . SVG Version: 6.00 Build 0)  -->
<svg version="1.1" id="Layer_1" xmlns="http://www.w3.org/2000/svg" xmlns:xlink="http://www.w3.org/1999/xlink" x="0px" y="0px"
	 viewBox="0 0 324 72" style="enable-background:new 0 0 324 72;" xml:space="preserve">
<style type="text/css">
	.st0{fill:#313131;}
</style>
<g>
	<path class="st0" d="M99.8,62.7c-4.1-2.8-8.9-4.1-13.4-3.9c-4.5,0.2-6.5,3.6-6.5,3.6c-2-3.6-6.1-5.7-12.3-5.6
		c-10,0.1-20,4.7-27.9,4.7c-7.5,0-13.1-4.7-12.9-13.2C27,33.5,39.5,20.1,48.9,14.1c5.4-3.5,9.9-4.5,12.8-4.2
		c2.1,0.2,4.7,2.7,3.2,6.4c-2.4,5.4-5.7,5-5.6,2.4c0.1-1.7,1.1-2.7,2-3.3c0.6-0.3,1.5-0.5,1.9-0.5c0.5-0.5,0.8-3.4-3-2.4
		c-3.8,1-8.4,4.7-12.9,9.7C42.9,27,36,36.3,34.4,46.1c-0.8,4.5-0.2,12.7,10.4,12.6c9-0.1,22.4-6.1,34.6-6c4.7,0,8.9,1.4,12.2,3.4
		C94.6,57.8,98.4,60.7,99.8,62.7 M102.7,35.8h1.8c0,0-9.2,13.4-14.5,12.8c-2.9-0.3-2-3.9-2-3.9s-4.1,4.8-7.9,3.8
		c-3.4-0.9-1.2-6.5-1.2-6.5c-0.5,0.1-7.8,8.6-13.1,6.5c-5.4-2.1-2.6-9.1-1.6-11.1c0.9-1.8,1.8-3.5,1.8-3.5s-0.8,0.2-1.4,0.3
		c-0.6,0.1-1.4,0.2-1.4,0.2s-2.6,4.2-4.2,6.3c-1.6,2.1-8.2,9.2-12.2,7.9c-3.9-1.5-2.9-7-0.8-11.4c3.7-7.2,12.3-15.9,17.3-14.6
		c5.2,1.4,0.9,9.8,0.9,9.8s1,0.1,3.5-1.6c3.6-2.5,8.2-9,13.4-8.2c2.4,0.3,4.6,2.8,1.6,7.4c-1,1.6-2.6,2.9-3.9,1.6
		c-0.8-0.8-0.1-2.4,0.7-3.4c1.1-1.5,2.7-1.2,2.7-1.2s0.8-1.9-1.2-1.9c-1.7,0-6.1,4.1-8.6,8.1c-2.3,3.7-5.7,10.1-2.3,11.5
		c3.2,1.2,9.2-5.9,11.9-9.6c2.8-3.7,9.1-12.3,14.4-12.6c1.8-0.1,2.9,1.6,2.9,1.6l0.6-1h5.3c0,0-10,16.8-10.8,18
		c-0.6,1-1.5,3.3,0.8,2C98,41.8,102.7,35.8,102.7,35.8 M61.4,34.1c-0.1,0-1.5-0.5-2.7-1.2c-1.4-0.8-1.9-2.1-1.9-2.1
		c0-0.1-0.1,0-0.1,0c0,0.1-0.3,0.5-2.3,3.3c-1.9,2.8-4.7,8.6-2,9.5c1.7,0.7,4.5-2.4,6.1-4.3c1.5-1.8,3.2-4.6,3.2-4.7
		C61.5,34.2,61.4,34.1,61.4,34.1 M63.4,25.2c-1.4-1-5,1.5-5,3.9c0,2.6,3.3,3.4,3.6,3.4c0,0,0.3,0.1,0.6-0.2c0.1-0.2,0.6-1,1-2.3
		C64.1,28.7,64.8,26.2,63.4,25.2 M90.5,39.1c2.1-2.9,8.1-13.3,8.1-13.3s-0.1-0.7-0.8-0.8c-0.8,0-2.1,0.2-5,3.6
		c-2.7,3.4-4.8,6.1-6.4,8.9c-1.7,3-2.5,5.3-1.5,5.9c0.2,0.1,0.7,0.2,1,0.1c0.7-0.1,1.5-0.8,2.6-2.1C89.3,40.9,89.9,40.1,90.5,39.1
		 M114.5,23.1h-5.1l-2.8,4.6h5.1L114.5,23.1z M181.2,57.6c-0.5,0-0.8,0.2-1.1,0.5s-0.5,0.7-0.5,1.1s0.1,0.9,0.5,1.2
		c0.3,0.3,0.7,0.5,1.1,0.5s0.9-0.1,1.2-0.5c0.3-0.3,0.5-0.8,0.5-1.2c0-0.5-0.1-0.8-0.5-1.1C182.1,57.8,181.6,57.6,181.2,57.6
		 M183.1,59.3c0,0.6-0.2,1-0.6,1.4c-0.3,0.3-0.8,0.6-1.4,0.6s-1-0.2-1.4-0.6c-0.3-0.3-0.6-0.8-0.6-1.4s0.2-1,0.6-1.4
		c0.3-0.3,0.8-0.6,1.4-0.6s1,0.2,1.4,0.6C183,58.3,183.1,58.7,183.1,59.3 M181.6,58.8c0-0.1,0-0.2-0.1-0.3s-0.2-0.1-0.5-0.1h-0.3
		v0.8h0.3c0.2,0,0.3,0,0.3,0C181.6,59.2,181.6,59.1,181.6,58.8 M180.4,58.3h0.8c0.2,0,0.5,0,0.6,0.1c0.2,0.1,0.3,0.2,0.3,0.6
		c0,0.2-0.1,0.3-0.2,0.5c-0.1,0-0.2,0.1-0.3,0.1c0.1,0,0.3,0.1,0.3,0.2c0.1,0.1,0.1,0.2,0.1,0.3v0.1c0,0.1,0,0.1,0,0.1v0.1l0,0h-0.3
		l0,0l0,0v-0.1v-0.1c0-0.2,0-0.5-0.2-0.5c-0.1-0.1-0.2-0.1-0.5-0.1h-0.3v0.8h-0.3L180.4,58.3C180.4,58.3,180.4,58.3,180.4,58.3z
		 M189.2,14.8c-3.7,2.4-8.9,4.6-13.8,4.1c-1.2,1.4-2.6,2.8-3.9,4.5c8.7,1.7,16.2-3.6,20.3-8.2c2.5-2.8,3.7-5.4,3.7-5.4
		S192.9,12.5,189.2,14.8 M174.4,54c-0.7,1.1-1.6,3.4,0.8,1.9c2.8-1.7,7-7.9,7-7.9h1.8c0,0-2.5,3.8-5.6,7.4c-2.9,3.3-6.5,6.2-9,5.9
		c-2.9-0.3-2-4.2-2-4.2s-4.2,4.5-7.1,4.2c-3.9-0.5-2.7-5.3-2.7-5.3s-4.4,5.4-7.4,5.3c-4.7-0.3-3.5-6.1-2.3-10.1
		c0.7-2.1,1.4-3.8,1.4-3.8s-0.5,0.1-1.5,0.2c-0.6,0.1-1.5,0.1-1.5,0.1s-1.9,3.5-3.5,5.5c-1.6,2.1-8.2,9.3-12.2,7.9
		c-3.6-1.4-2.5-6.9-0.3-11.4c3.2-6.4,11.8-15.8,16.8-14.5c5.2,1.2,0.1,10.8,0.1,10.8l0,0c0.1,0,0.3,0.1,1,0c1-0.2,1.9-0.6,1.9-0.6
		s5.2-10.9,11-18.1c5.7-7.2,17.3-19.5,21.8-16.5c1.1,0.7,0.6,3.3-0.9,6.3c-0.7,0.2-1.4,0.3-2,0.6c1-1.8,1.7-3.4,1.8-4.4
		c0.7-3.7-8,4.1-14.2,12.5s-9.9,16-9.9,16s1.2-0.7,3.2-2.3c2-1.7,4.8-4.2,7.9-7.3c2-2.1,4.4-4.7,6.6-7.8c0.7,0,1.4-0.1,1.9-0.2
		c-2.5,3.4-5.2,6.4-7.3,8.7c-2.5,2.5-5.1,5.2-7.4,7.1c-3.7,3.2-6.5,4.8-6.5,4.8s-5.4,10.9-2.5,11.6c1.7,0.5,5.2-4.8,5.2-4.8
		s4.5-6.8,7.1-9.9c3.6-4.2,6.9-6.5,9.9-6.6c1.8,0,2.9,1.9,2.9,1.9l0.9-1.4h5.3C185.1,36,175.2,52.8,174.4,54 M144.5,47.3
		c-0.1,0-1.2-0.6-2.5-1.6c-1.2-1-1.8-2.1-1.8-2.3s-0.1,0-0.1,0c0,0.1-0.2,0.2-2.1,3s-4.8,8.6-2.1,9.6c1.7,0.7,4.5-2.4,6.1-4.3
		c1.5-1.8,2.7-4.2,2.8-4.3C144.6,47.5,144.6,47.5,144.5,47.3 M147.2,42.7c0.5-1.2,1.1-3.8-0.2-4.7c-1.4-1-5,1.5-5,3.9
		c0,2.6,2.5,3.7,3.2,3.9c0.3,0.1,0.5,0.1,0.7-0.2C145.8,45.4,146.6,44,147.2,42.7 M177.7,39.1c0.1-0.2,0.1-0.3,0.1-0.3
		s-0.1-0.7-0.8-0.8c-0.8,0-1.9,0.1-4.8,3.4c-2.9,3.3-4.7,6.1-6.2,8.9c-1.7,3-2.4,5.4-1.4,6c0.2,0.2,0.7,0.2,1,0.1
		c0.7-0.1,1.4-0.8,2.5-2c0.6-0.6,1.1-1.5,1.8-2.5C171.8,49.2,176.7,40.8,177.7,39.1 M189.2,14.8c-3.7,2.4-8.9,4.6-13.8,4.1
		c-1.2,1.4-2.6,2.8-3.9,4.5c8.7,1.7,16.2-3.6,20.3-8.2c2.5-2.8,3.7-5.4,3.7-5.4S192.9,12.5,189.2,14.8 M164.9,21.1
		c-4.1-2.1-7.1-4.6-10.1-6.2c-2.9-1.5-4.8-2.1-7.3-1.8c-0.5,0-1,0.2-1,0.2s1.2,4.2-3.7,11.3c-5,7.2-9.5,7.1-10.8,5.2
		c-1.4-2,0.3-6.3,3.3-10.1c3-3.9,8.3-7.2,8.3-7.2s-1.7-1-5.9,1.4c-4.1,2.3-11,7.8-17.6,17c-6.5,9.2-7.8,14.3-8.7,18.3
		c-0.9,3.9-0.1,8.3,4.4,8.3c4.4,0,9.6-6.8,11-9.1c2.7-4.4,4.5-11.1,0.8-10.2c-1.8,0.5-3.3,2.5-4.2,4.4c-1,2-1.4,3.9-1.4,3.9
		s-1.6,0.6-3.6,2.1c-2,1.6-3.4,3-3.4,3s0-3.2,2.6-8.3s7.2-7.5,9.9-7.8c2.4-0.2,5.5,1.8,2.9,9.3c-2.6,7.5-10.1,16.6-18.4,16.7
		c-7.7-0.1-12.6-9.7-2.1-26.5c11.6-18.6,25.2-24.3,29.6-24.9c4.4-0.7,5.9,1.4,5.9,1.4s3.7-1.7,8.4-1.4c5.4,0.3,9.6,4.2,15.1,6.9
		C167.5,18.3,166.1,19.8,164.9,21.1 M144.8,13.8c0,0-3.2,1.2-6.9,5.3c-3.7,4.1-5.9,8.6-4.3,9.8c0.6,0.5,2,0.6,4.5-1.8
		c2-1.8,4.1-4.2,5.4-7.4C145.4,15.7,144.8,13.8,144.8,13.8"/>
</g>
<g>
	<path class="st0" d="M199.4,59.9c-1.8-0.9-3.1-2.2-4.1-3.9c-1-1.6-1.5-3.5-1.5-5.5c0-2,0.5-3.9,1.5-5.5c1-1.7,2.4-2.9,4.1-3.9
		c1.7-0.9,3.7-1.4,5.8-1.4c1.6,0,3.1,0.3,4.5,0.8c1.4,0.5,2.5,1.3,3.4,2.2l-1.9,2c-0.8-0.8-1.7-1.4-2.7-1.8s-2.1-0.6-3.3-0.6
		c-1.5,0-2.9,0.4-4.2,1.1c-1.3,0.7-2.3,1.7-3.1,2.9c-0.8,1.2-1.1,2.6-1.1,4.2c0,1.5,0.4,2.9,1.1,4.2c0.8,1.2,1.8,2.2,3.1,2.9
		c1.3,0.7,2.7,1.1,4.3,1.1c1.1,0,2.2-0.2,3.3-0.6c1-0.4,1.9-1,2.7-1.7l1.9,2c-0.9,1-2.1,1.7-3.4,2.2c-1.4,0.5-2.9,0.7-4.4,0.7
		C203.1,61.3,201.2,60.8,199.4,59.9z"/>
	<path class="st0" d="M232.4,58.5v2.3c-0.3,0.2-0.8,0.2-1.5,0.2c-0.8,0-1.5-0.2-2.2-0.7c-0.6-0.4-1-1.1-1.1-1.9
		c-0.6,1-1.5,1.7-2.6,2.1c-1.1,0.5-2.3,0.7-3.6,0.7c-1.1,0-2.2-0.2-3.1-0.6c-0.9-0.4-1.7-0.9-2.3-1.6c-0.6-0.7-0.8-1.6-0.8-2.6
		c0-1.6,0.8-2.9,2.3-3.8c1.5-0.9,3.7-1.4,6.6-1.4h3.4v-0.2c0-1.2-0.4-2.2-1.2-2.9c-0.8-0.7-1.9-1-3.3-1c-0.9,0-1.8,0.1-2.7,0.4
		c-0.9,0.3-1.7,0.7-2.3,1.2l-1.5-2c0.8-0.7,1.8-1.2,3-1.6c1.2-0.4,2.4-0.5,3.6-0.5c2.2,0,3.9,0.6,5.2,1.7c1.3,1.1,1.9,2.6,1.9,4.5
		v6.4c0,0.8,0.4,1.3,1.3,1.3C231.9,58.7,232.2,58.6,232.4,58.5z M225.6,57.6c1.1-0.8,1.8-2.2,1.9-4h-3.4c-2.1,0-3.7,0.3-4.6,0.8
		c-1,0.5-1.4,1.2-1.4,2c0,0.8,0.3,1.3,1,1.8c0.7,0.4,1.5,0.7,2.6,0.7C223.2,58.9,224.5,58.4,225.6,57.6z"/>
	<path class="st0" d="M248,46.4c1.2,1.1,1.8,2.6,1.8,4.4v10.1H247v-9.6c0-1.2-0.4-2.2-1.1-2.9c-0.7-0.7-1.8-1.1-3.1-1.1
		c-1,0-1.8,0.2-2.6,0.6c-0.8,0.4-1.3,0.9-1.8,1.5c-0.4,0.6-0.6,1.3-0.6,2.1v9.4H235V45.2h2.6v2.2c0.7-0.9,1.5-1.5,2.5-1.9
		c1-0.4,2-0.6,3.2-0.6C245.2,44.8,246.8,45.3,248,46.4z"/>
	<path class="st0" d="M269.8,58.5v2.3c-0.3,0.2-0.8,0.2-1.5,0.2c-0.8,0-1.5-0.2-2.2-0.7c-0.6-0.4-1-1.1-1.1-1.9
		c-0.6,1-1.5,1.7-2.6,2.1c-1.1,0.5-2.3,0.7-3.6,0.7c-1.1,0-2.2-0.2-3.1-0.6c-0.9-0.4-1.7-0.9-2.3-1.6c-0.6-0.7-0.8-1.6-0.8-2.6
		c0-1.6,0.8-2.9,2.3-3.8c1.5-0.9,3.7-1.4,6.6-1.4h3.4v-0.2c0-1.2-0.4-2.2-1.2-2.9c-0.8-0.7-1.9-1-3.3-1c-0.9,0-1.8,0.1-2.7,0.4
		c-0.9,0.3-1.7,0.7-2.3,1.2l-1.5-2c0.8-0.7,1.8-1.2,3-1.6c1.2-0.4,2.4-0.5,3.6-0.5c2.2,0,3.9,0.6,5.2,1.7c1.3,1.1,1.9,2.6,1.9,4.5
		v6.4c0,0.8,0.4,1.3,1.3,1.3C269.3,58.7,269.6,58.6,269.8,58.5z M263,57.6c1.1-0.8,1.8-2.2,1.9-4h-3.4c-2.1,0-3.7,0.3-4.6,0.8
		c-1,0.5-1.4,1.2-1.4,2c0,0.8,0.3,1.3,1,1.8c0.7,0.4,1.5,0.7,2.6,0.7C260.6,58.9,261.9,58.4,263,57.6z"/>
	<path class="st0" d="M287.8,39.2v21.8h-2.6v-2.6c-0.7,0.9-1.5,1.7-2.6,2.2c-1,0.5-2.2,0.8-3.5,0.8c-1.5,0-2.9-0.4-4.1-1.1
		c-1.2-0.7-2.2-1.7-2.9-3c-0.7-1.3-1-2.7-1-4.2s0.3-2.9,1-4.2c0.7-1.3,1.7-2.2,2.9-3c1.2-0.7,2.6-1.1,4.1-1.1c1.3,0,2.4,0.2,3.4,0.7
		s1.8,1.2,2.5,2.1v-8.4H287.8z M282.3,58.1c0.9-0.5,1.6-1.1,2.1-2c0.5-0.9,0.8-1.9,0.8-3s-0.3-2.1-0.8-3c-0.5-0.9-1.2-1.5-2.1-2
		c-0.9-0.5-1.8-0.7-2.9-0.7c-1.1,0-2,0.2-2.9,0.7c-0.8,0.5-1.5,1.2-2,2c-0.5,0.9-0.7,1.8-0.7,2.9c0,1.1,0.2,2.1,0.7,3
		c0.5,0.9,1.1,1.5,2,2c0.8,0.5,1.8,0.7,2.9,0.7C280.5,58.8,281.4,58.5,282.3,58.1z"/>
	<path class="st0" d="M308.1,58.5v2.3c-0.3,0.2-0.8,0.2-1.5,0.2c-0.8,0-1.5-0.2-2.2-0.7c-0.6-0.4-1-1.1-1.1-1.9
		c-0.6,1-1.5,1.7-2.6,2.1c-1.1,0.5-2.3,0.7-3.6,0.7c-1.1,0-2.2-0.2-3.1-0.6c-0.9-0.4-1.7-0.9-2.3-1.6c-0.6-0.7-0.8-1.6-0.8-2.6
		c0-1.6,0.8-2.9,2.3-3.8c1.5-0.9,3.7-1.4,6.6-1.4h3.4v-0.2c0-1.2-0.4-2.2-1.2-2.9c-0.8-0.7-1.9-1-3.3-1c-0.9,0-1.8,0.1-2.7,0.4
		c-0.9,0.3-1.7,0.7-2.3,1.2l-1.5-2c0.8-0.7,1.8-1.2,3-1.6c1.2-0.4,2.4-0.5,3.6-0.5c2.2,0,3.9,0.6,5.2,1.7c1.3,1.1,1.9,2.6,1.9,4.5
		v6.4c0,0.8,0.4,1.3,1.3,1.3C307.6,58.7,307.9,58.6,308.1,58.5z M301.3,57.6c1.1-0.8,1.8-2.2,1.9-4h-3.4c-2.1,0-3.7,0.3-4.6,0.8
		c-1,0.5-1.4,1.2-1.4,2c0,0.8,0.3,1.3,1,1.8c0.7,0.4,1.5,0.7,2.6,0.7C298.9,58.9,300.2,58.4,301.3,57.6z"/>
</g>
</svg>
